<svg width="1920" height="1875" viewBox="0 0 1920 1875" fill="none" xmlns="http://www.w3.org/2000/svg">
<rect x="8" y="344" width="1904" height="1523" rx="13" fill="#6836F0" stroke="white" stroke-width="16"/>
<path d="M908 1378H1912V1545H908C900.82 1545 895 1539.18 895 1532V1391C895 1383.82 900.82 1378 908 1378Z" fill="#BAF137" stroke="white" stroke-width="16"/>
<path d="M1533 336L1459 336L1459 0L1533 0L1533 336Z" fill="#BAF137"/>
<path d="M1533 627.5L1337.5 627.5V722.5L1796.5 722.5V1016.5L1056 1014V491.5L157 491.5L157 867.5L546.5 867.5V687.5H885L885 1249H654V1342.5L157 1342.5L157 1603L654 1603V1859L582 1859V1672.5L85 1672.5L85 1269.5L582 1269.5V1177H812.5L812.5 761.5H617V940.5L85 940.5L85 420L1129.5 425V941.5L1725 941.5V798L1263.5 798V556.5H1459L1459 352L1533 352L1533 627.5Z" fill="#BAF137"/>
<path d="M1008.45 1443.08H1044.29V1477H1028.93V1455.88H1023.81V1477H1008.45V1443.08ZM1049.42 1460.04C1049.42 1450.12 1057.42 1442.12 1068.94 1442.12C1080.46 1442.12 1088.46 1450.12 1088.46 1460.04C1088.46 1469.96 1080.46 1477.96 1068.94 1477.96C1057.42 1477.96 1049.42 1469.96 1049.42 1460.04ZM1073.1 1460.04C1073.1 1457.16 1071.18 1455.24 1068.94 1455.24C1066.7 1455.24 1064.78 1457.16 1064.78 1460.04C1064.78 1462.92 1066.7 1464.84 1068.94 1464.84C1071.18 1464.84 1073.1 1462.92 1073.1 1460.04ZM1115.03 1459.4V1459.72C1115.03 1459.72 1121.43 1461.32 1121.43 1468.04C1121.43 1472.84 1116.31 1477.96 1107.03 1477.96C1095.83 1477.96 1090.39 1471.88 1090.39 1471.88L1095.19 1464.2C1095.19 1464.2 1098.39 1467.4 1102.23 1467.4C1103.83 1467.4 1104.79 1466.44 1104.79 1465.48C1104.79 1464.52 1103.83 1463.56 1102.23 1463.56H1098.39V1456.52H1102.87C1104.47 1456.52 1105.43 1455.56 1105.43 1454.6C1105.43 1453.64 1104.47 1452.68 1102.87 1452.68C1099.03 1452.68 1096.47 1455.24 1096.47 1455.24L1091.67 1447.56C1091.67 1447.56 1097.11 1442.12 1106.39 1442.12C1115.67 1442.12 1120.79 1447.24 1120.79 1452.04C1120.79 1457.8 1115.03 1459.4 1115.03 1459.4ZM1152.45 1459.4V1459.72C1152.45 1459.72 1159.17 1461.32 1159.17 1467.4C1159.17 1472.52 1154.05 1477.64 1141.57 1477.64C1131.97 1477.64 1125.89 1477 1125.89 1477V1443.08C1125.89 1443.08 1131.97 1442.44 1141.25 1442.44C1152.13 1442.44 1157.25 1447.56 1157.25 1452.68C1157.25 1457.8 1152.45 1459.4 1152.45 1459.4ZM1140.61 1468.04H1141.57C1142.85 1468.04 1143.81 1467.08 1143.81 1466.12C1143.81 1465.16 1142.85 1464.2 1141.57 1464.2H1140.61V1468.04ZM1140.61 1452.04V1455.88C1142.21 1455.88 1143.17 1454.92 1143.17 1453.96C1143.17 1453 1142.21 1452.04 1140.61 1452.04ZM1162.36 1460.04C1162.36 1450.12 1170.36 1442.12 1181.88 1442.12C1193.4 1442.12 1201.4 1450.12 1201.4 1460.04C1201.4 1469.96 1193.4 1477.96 1181.88 1477.96C1170.36 1477.96 1162.36 1469.96 1162.36 1460.04ZM1186.04 1460.04C1186.04 1457.16 1184.12 1455.24 1181.88 1455.24C1179.64 1455.24 1177.72 1457.16 1177.72 1460.04C1177.72 1462.92 1179.64 1464.84 1181.88 1464.84C1184.12 1464.84 1186.04 1462.92 1186.04 1460.04ZM1209.09 1443.08H1240.45V1477H1225.09V1455.88H1222.53C1222.53 1472.2 1216.77 1477.96 1208.45 1477.96C1205.89 1477.96 1202.69 1477 1202.69 1477V1466.12H1203.97C1207.17 1466.12 1209.09 1464.2 1209.09 1443.08ZM1265.71 1452.04C1273.71 1452.04 1279.47 1457.8 1279.47 1464.84C1279.47 1471.88 1273.71 1477.64 1262.51 1477.64C1252.91 1477.64 1246.83 1477 1246.83 1477V1443.08H1262.19V1452.36C1262.19 1452.36 1264.11 1452.04 1265.71 1452.04ZM1262.51 1462.28H1261.55V1467.4H1262.51C1263.79 1467.4 1264.75 1466.44 1264.75 1464.84C1264.75 1463.24 1263.79 1462.28 1262.51 1462.28ZM1311.48 1460.04C1311.48 1462.92 1313.4 1464.84 1316.6 1464.84C1319.8 1464.84 1322.36 1462.28 1322.36 1462.28L1328.76 1472.52C1328.76 1472.52 1323.64 1477.96 1314.36 1477.96C1303.48 1477.96 1295.48 1469.96 1295.48 1460.04C1295.48 1450.12 1303.48 1442.12 1314.36 1442.12C1323.64 1442.12 1328.76 1447.56 1328.76 1447.56L1322.36 1457.8C1322.36 1457.8 1319.8 1455.24 1316.6 1455.24C1313.4 1455.24 1311.48 1457.16 1311.48 1460.04ZM1347.97 1442.12C1357.89 1442.12 1365.89 1450.12 1365.89 1460.04C1365.89 1460.3 1365.89 1462.98 1365.89 1463.24H1345.41C1345.41 1463.24 1346.05 1466.76 1351.17 1466.76C1354.37 1466.76 1356.93 1464.2 1356.93 1464.2L1362.37 1472.84C1362.37 1472.84 1357.57 1477.96 1348.93 1477.96C1338.05 1477.96 1330.05 1469.96 1330.05 1460.04C1330.05 1450.12 1338.05 1442.12 1347.97 1442.12ZM1345.09 1457.16H1350.85C1350.85 1454.6 1349.57 1453.32 1347.97 1453.32C1346.37 1453.32 1345.09 1454.6 1345.09 1457.16ZM1391.51 1441.16C1385.11 1441.16 1381.91 1444.36 1381.91 1448.84C1381.91 1448.84 1385.75 1444.36 1392.15 1444.36C1400.47 1444.36 1406.87 1450.76 1406.87 1460.04C1406.87 1469.96 1398.87 1477.96 1387.99 1477.96C1377.11 1477.96 1369.11 1469.96 1369.11 1455.88V1453.32C1369.11 1438.28 1377.11 1430.28 1391.51 1430.28C1393.11 1430.28 1394.07 1429.32 1394.07 1427.72H1406.23C1406.23 1437.96 1403.03 1441.16 1391.51 1441.16ZM1391.51 1460.04C1391.51 1456.84 1389.97 1455.24 1387.99 1455.24C1386 1455.24 1384.47 1456.84 1384.47 1460.04C1384.47 1463.24 1386 1464.84 1387.99 1464.84C1389.97 1464.84 1391.51 1463.24 1391.51 1460.04ZM1428.65 1442.12C1438.57 1442.12 1446.57 1450.12 1446.57 1460.04C1446.57 1460.3 1446.57 1462.98 1446.57 1463.24H1426.09C1426.09 1463.24 1426.73 1466.76 1431.85 1466.76C1435.05 1466.76 1437.61 1464.2 1437.61 1464.2L1443.05 1472.84C1443.05 1472.84 1438.25 1477.96 1429.61 1477.96C1418.73 1477.96 1410.73 1469.96 1410.73 1460.04C1410.73 1450.12 1418.73 1442.12 1428.65 1442.12ZM1425.77 1457.16H1431.53C1431.53 1454.6 1430.25 1453.32 1428.65 1453.32C1427.05 1453.32 1425.77 1454.6 1425.77 1457.16ZM1484.37 1453.96V1443.08H1499.73V1477H1484.37V1466.12H1479.25V1477H1463.89V1443.08H1479.25V1453.96H1484.37ZM1522.78 1442.12C1532.7 1442.12 1540.7 1450.12 1540.7 1460.04C1540.7 1460.3 1540.7 1462.98 1540.7 1463.24H1520.22C1520.22 1463.24 1520.86 1466.76 1525.98 1466.76C1529.18 1466.76 1531.74 1464.2 1531.74 1464.2L1537.18 1472.84C1537.18 1472.84 1532.38 1477.96 1523.74 1477.96C1512.86 1477.96 1504.86 1469.96 1504.86 1460.04C1504.86 1450.12 1512.86 1442.12 1522.78 1442.12ZM1519.9 1457.16H1525.66C1525.66 1454.6 1524.38 1453.32 1522.78 1453.32C1521.18 1453.32 1519.9 1454.6 1519.9 1457.16ZM1572.73 1460.04C1572.73 1462.92 1574.65 1464.84 1577.85 1464.84C1581.05 1464.84 1583.61 1462.28 1583.61 1462.28L1590.01 1472.52C1590.01 1472.52 1584.89 1477.96 1575.61 1477.96C1564.73 1477.96 1556.73 1469.96 1556.73 1460.04C1556.73 1450.12 1564.73 1442.12 1575.61 1442.12C1584.89 1442.12 1590.01 1447.56 1590.01 1447.56L1583.61 1457.8C1583.61 1457.8 1581.05 1455.24 1577.85 1455.24C1574.65 1455.24 1572.73 1457.16 1572.73 1460.04ZM1593.83 1443.08H1629.67V1477H1614.31V1455.88H1609.19V1477H1593.83V1443.08ZM1652.72 1442.12C1662.64 1442.12 1670.64 1450.12 1670.64 1460.04C1670.64 1460.3 1670.64 1462.98 1670.64 1463.24H1650.16C1650.16 1463.24 1650.8 1466.76 1655.92 1466.76C1659.12 1466.76 1661.68 1464.2 1661.68 1464.2L1667.12 1472.84C1667.12 1472.84 1662.32 1477.96 1653.68 1477.96C1642.8 1477.96 1634.8 1469.96 1634.8 1460.04C1634.8 1450.12 1642.8 1442.12 1652.72 1442.12ZM1649.84 1457.16H1655.6C1655.6 1454.6 1654.32 1453.32 1652.72 1453.32C1651.12 1453.32 1649.84 1454.6 1649.84 1457.16ZM1690.5 1443.08V1464.2H1694.34V1443.08H1694.4H1709.7V1464.2H1713.54V1443.08H1728.9V1477H1675.14V1443.08H1690.5ZM1751.33 1477H1735.33V1443.08H1750.69V1457.8L1756.45 1443.08H1772.45V1477H1757.09V1462.28L1751.33 1477ZM1776.27 1443.08H1808.27V1456.52H1799.95V1477H1784.59V1456.52H1776.27V1443.08ZM1830.96 1452.04C1838.96 1452.04 1844.72 1457.8 1844.72 1464.84C1844.72 1471.88 1838.96 1477.64 1827.76 1477.64C1818.16 1477.64 1812.08 1477 1812.08 1477V1443.08H1827.44V1452.36C1827.44 1452.36 1829.36 1452.04 1830.96 1452.04ZM1827.76 1462.28H1826.8V1467.4H1827.76C1829.04 1467.4 1830 1466.44 1830 1464.84C1830 1463.24 1829.04 1462.28 1827.76 1462.28Z" fill="black"/>
</svg>
