<svg width="1887" height="937" viewBox="0 0 1887 937" fill="none" xmlns="http://www.w3.org/2000/svg">
<rect x="1233" y="632" width="237" height="305" fill="#8464E1"/>
<rect x="1313.88" y="654" width="31.3462" height="46.2356" fill="#D9D9D9"/>
<rect x="1357.77" y="654" width="31.3462" height="46.2356" fill="#D9D9D9"/>
<rect x="1270" y="726.096" width="31.3462" height="46.2356" fill="#FDFF85"/>
<rect x="1357.77" y="726.096" width="31.3462" height="46.2356" fill="#D9D9D9"/>
<rect x="1401.65" y="726.096" width="31.3462" height="46.2356" fill="#D9D9D9"/>
<rect x="1270" y="797.408" width="31.3462" height="46.2356" fill="#D9D9D9"/>
<rect x="1313.88" y="797.408" width="31.3462" height="46.2356" fill="#D9D9D9"/>
<rect x="1401.65" y="797.408" width="31.3462" height="46.2356" fill="#FDFF85"/>
<rect x="1313.88" y="869.504" width="31.3462" height="46.2356" fill="#FDFF85"/>
<rect x="1357.77" y="869.504" width="31.3462" height="46.2356" fill="#D9D9D9"/>
<rect x="1470" y="711" width="417" height="226" fill="#A38DE3"/>
<rect y="36" width="276" height="502" fill="#5A2BDA"/>
<rect x="120" y="410" width="379" height="527" fill="#8464E1"/>
<rect x="149" y="453" width="40" height="59" fill="#D9D9D9"/>
<rect x="261" y="453" width="40" height="59" fill="#D9D9D9"/>
<rect x="373" y="453" width="40" height="59" fill="#FDFF85"/>
<rect x="429" y="453" width="40" height="59" fill="#D9D9D9"/>
<rect x="205" y="545" width="40" height="59" fill="#D9D9D9"/>
<rect x="261" y="545" width="40" height="59" fill="#D9D9D9"/>
<rect x="317" y="545" width="40" height="59" fill="#D9D9D9"/>
<rect x="429" y="545" width="40" height="59" fill="#D9D9D9"/>
<rect x="149" y="636" width="40" height="59" fill="#D9D9D9"/>
<rect x="317" y="636" width="40" height="59" fill="#FDFF85"/>
<rect x="373" y="636" width="40" height="59" fill="#D9D9D9"/>
<rect x="205" y="728" width="40" height="59" fill="#FDFF85"/>
<rect x="261" y="728" width="40" height="59" fill="#D9D9D9"/>
<rect x="373" y="728" width="40" height="59" fill="#FDFF85"/>
<rect x="429" y="728" width="40" height="59" fill="#D9D9D9"/>
<rect x="11" y="55" width="130" height="22" fill="#D9D9D9"/>
<rect x="11" y="145" width="130" height="22" fill="#FDFF85"/>
<rect x="11" y="190" width="130" height="22" fill="#D9D9D9"/>
<rect x="84" y="368" width="130" height="22" fill="#FDFF85"/>
<rect x="84" y="287" width="130" height="22" fill="#D9D9D9"/>
<path d="M654 763L1107 763V524L1733 524V427L1810 427L1810 598L1176 598V834L582 834L582 0L654 0L654 763Z" fill="#BAF137"/>
<rect x="1661" y="90" width="226" height="338" fill="#654BAE"/>
<rect x="1469" y="169" width="363" height="259" fill="#9078D5"/>
<rect x="1496.06" y="201.062" width="55.1235" height="85.8765" fill="#FDFF85" stroke="#6A3BEC" stroke-width="8.12346"/>
<rect x="1518.69" y="197" width="9.28395" height="94" fill="#6A3BEC"/>
<rect x="1492" y="248.062" width="8.12346" height="63.2469" transform="rotate(-90 1492 248.062)" fill="#6A3BEC"/>
<rect x="1496.06" y="315.062" width="55.1235" height="85.8765" fill="#D9D9D9" stroke="#6A3BEC" stroke-width="8.12346"/>
<rect x="1518.69" y="311" width="9.28395" height="94" fill="#6A3BEC"/>
<rect x="1492" y="362.062" width="8.12346" height="63.2469" transform="rotate(-90 1492 362.062)" fill="#6A3BEC"/>
<rect x="1580.06" y="201.062" width="55.1235" height="85.8765" fill="#D9D9D9" stroke="#6A3BEC" stroke-width="8.12346"/>
<rect x="1602.69" y="197" width="9.28395" height="94" fill="#6A3BEC"/>
<rect x="1576" y="248.062" width="8.12346" height="63.2469" transform="rotate(-90 1576 248.062)" fill="#6A3BEC"/>
<rect x="1746.06" y="200.062" width="55.1235" height="85.8765" fill="#D9D9D9" stroke="#6A3BEC" stroke-width="8.12346"/>
<rect x="1768.69" y="196" width="9.28395" height="94" fill="#6A3BEC"/>
<rect x="1742" y="247.062" width="8.12346" height="63.2469" transform="rotate(-90 1742 247.062)" fill="#6A3BEC"/>
<rect x="1665.06" y="315.062" width="55.1235" height="85.8765" fill="#FDFF85" stroke="#6A3BEC" stroke-width="8.12346"/>
<rect x="1687.69" y="311" width="9.28395" height="94" fill="#6A3BEC"/>
<rect x="1661" y="362.062" width="8.12346" height="63.2469" transform="rotate(-90 1661 362.062)" fill="#6A3BEC"/>
<rect x="1742" y="332" width="58" height="96" fill="#6836F0"/>
<circle cx="1752.5" cy="379.5" r="4.5" fill="#D9D9D9"/>
<rect x="695" y="203" width="340" height="529" fill="#917BD1"/>
<rect x="771" y="338" width="302" height="394" fill="#8464E1"/>
<rect x="803" y="369" width="95" height="148" fill="#D9D9D9" stroke="#6A3BEC" stroke-width="14"/>
<rect x="842" y="362" width="16" height="162" fill="#6A3BEC"/>
<rect x="796" y="450" width="14" height="109" transform="rotate(-90 796 450)" fill="#6A3BEC"/>
<rect x="945" y="369" width="95" height="148" fill="#FDFF85" stroke="#6A3BEC" stroke-width="14"/>
<rect x="984" y="362" width="16" height="162" fill="#6A3BEC"/>
<rect x="938" y="450" width="14" height="109" transform="rotate(-90 938 450)" fill="#6A3BEC"/>
<rect x="1499" y="761" width="166" height="22" fill="#D9D9D9"/>
<rect x="1674" y="851" width="166" height="22" fill="#D9D9D9"/>
</svg>
