<svg width="1920" height="1539" viewBox="0 0 1920 1539" fill="none" xmlns="http://www.w3.org/2000/svg">
<rect x="7" y="8" width="1904" height="1523" rx="13" fill="#6836F0" stroke="white" stroke-width="16"/>
<path d="M907.462 1042H1912V1209H907.462C900.282 1209 894.462 1203.18 894.462 1196V1055C894.462 1047.82 900.282 1042 907.462 1042Z" fill="#BAF137" stroke="white" stroke-width="16"/>
<path d="M1532.8 291.5L1337.2 291.5V386.5L1796.44 386.5V680.5L1055.55 678V155.5L156.082 155.5L156.082 531.5L545.785 531.5V351.5H884.461L884.461 913L653.341 913V1006.5L156.082 1006.5L156.082 1267L653.341 1267V1523L581.303 1523V1336.5L84.0442 1336.5L84.0442 933.5L581.303 933.5V841H811.923L811.923 425.5H616.321V604.5L84.0442 604.5L84.0442 84L1129.09 89V605.5L1724.9 605.5V462L1263.16 462V220.5H1458.76L1458.76 16L1532.8 16L1532.8 291.5Z" fill="#BAF137"/>
<path d="M1008.41 1107.08H1044.25V1141H1028.89V1119.88H1023.77V1141H1008.41V1107.08ZM1049.38 1124.04C1049.38 1114.12 1057.38 1106.12 1068.9 1106.12C1080.42 1106.12 1088.42 1114.12 1088.42 1124.04C1088.42 1133.96 1080.42 1141.96 1068.9 1141.96C1057.38 1141.96 1049.38 1133.96 1049.38 1124.04ZM1073.06 1124.04C1073.06 1121.16 1071.14 1119.24 1068.9 1119.24C1066.66 1119.24 1064.74 1121.16 1064.74 1124.04C1064.74 1126.92 1066.66 1128.84 1068.9 1128.84C1071.14 1128.84 1073.06 1126.92 1073.06 1124.04ZM1114.99 1123.4V1123.72C1114.99 1123.72 1121.39 1125.32 1121.39 1132.04C1121.39 1136.84 1116.27 1141.96 1106.99 1141.96C1095.79 1141.96 1090.35 1135.88 1090.35 1135.88L1095.15 1128.2C1095.15 1128.2 1098.35 1131.4 1102.19 1131.4C1103.79 1131.4 1104.75 1130.44 1104.75 1129.48C1104.75 1128.52 1103.79 1127.56 1102.19 1127.56H1098.35V1120.52H1102.83C1104.43 1120.52 1105.39 1119.56 1105.39 1118.6C1105.39 1117.64 1104.43 1116.68 1102.83 1116.68C1098.99 1116.68 1096.43 1119.24 1096.43 1119.24L1091.63 1111.56C1091.63 1111.56 1097.07 1106.12 1106.35 1106.12C1115.63 1106.12 1120.75 1111.24 1120.75 1116.04C1120.75 1121.8 1114.99 1123.4 1114.99 1123.4ZM1152.41 1123.4V1123.72C1152.41 1123.72 1159.13 1125.32 1159.13 1131.4C1159.13 1136.52 1154.01 1141.64 1141.53 1141.64C1131.93 1141.64 1125.85 1141 1125.85 1141V1107.08C1125.85 1107.08 1131.93 1106.44 1141.21 1106.44C1152.09 1106.44 1157.21 1111.56 1157.21 1116.68C1157.21 1121.8 1152.41 1123.4 1152.41 1123.4ZM1140.57 1132.04H1141.53C1142.81 1132.04 1143.77 1131.08 1143.77 1130.12C1143.77 1129.16 1142.81 1128.2 1141.53 1128.2H1140.57V1132.04ZM1140.57 1116.04V1119.88C1142.17 1119.88 1143.13 1118.92 1143.13 1117.96C1143.13 1117 1142.17 1116.04 1140.57 1116.04ZM1162.32 1124.04C1162.32 1114.12 1170.32 1106.12 1181.84 1106.12C1193.36 1106.12 1201.36 1114.12 1201.36 1124.04C1201.36 1133.96 1193.36 1141.96 1181.84 1141.96C1170.32 1141.96 1162.32 1133.96 1162.32 1124.04ZM1186 1124.04C1186 1121.16 1184.08 1119.24 1181.84 1119.24C1179.6 1119.24 1177.68 1121.16 1177.68 1124.04C1177.68 1126.92 1179.6 1128.84 1181.84 1128.84C1184.08 1128.84 1186 1126.92 1186 1124.04ZM1209.05 1107.08H1240.41V1141H1225.05V1119.88H1222.49C1222.49 1136.2 1216.73 1141.96 1208.41 1141.96C1205.85 1141.96 1202.65 1141 1202.65 1141V1130.12H1203.93C1207.13 1130.12 1209.05 1128.2 1209.05 1107.08ZM1265.67 1116.04C1273.67 1116.04 1279.43 1121.8 1279.43 1128.84C1279.43 1135.88 1273.67 1141.64 1262.47 1141.64C1252.87 1141.64 1246.79 1141 1246.79 1141V1107.08H1262.15V1116.36C1262.15 1116.36 1264.07 1116.04 1265.67 1116.04ZM1262.47 1126.28H1261.51V1131.4H1262.47C1263.75 1131.4 1264.71 1130.44 1264.71 1128.84C1264.71 1127.24 1263.75 1126.28 1262.47 1126.28ZM1311.44 1124.04C1311.44 1126.92 1313.36 1128.84 1316.56 1128.84C1319.76 1128.84 1322.32 1126.28 1322.32 1126.28L1328.72 1136.52C1328.72 1136.52 1323.6 1141.96 1314.32 1141.96C1303.44 1141.96 1295.44 1133.96 1295.44 1124.04C1295.44 1114.12 1303.44 1106.12 1314.32 1106.12C1323.6 1106.12 1328.72 1111.56 1328.72 1111.56L1322.32 1121.8C1322.32 1121.8 1319.76 1119.24 1316.56 1119.24C1313.36 1119.24 1311.44 1121.16 1311.44 1124.04ZM1347.93 1106.12C1357.85 1106.12 1365.85 1114.12 1365.85 1124.04C1365.85 1124.3 1365.85 1126.98 1365.85 1127.24H1345.37C1345.37 1127.24 1346.01 1130.76 1351.13 1130.76C1354.33 1130.76 1356.89 1128.2 1356.89 1128.2L1362.33 1136.84C1362.33 1136.84 1357.53 1141.96 1348.89 1141.96C1338.01 1141.96 1330.01 1133.96 1330.01 1124.04C1330.01 1114.12 1338.01 1106.12 1347.93 1106.12ZM1345.05 1121.16H1350.81C1350.81 1118.6 1349.53 1117.32 1347.93 1117.32C1346.33 1117.32 1345.05 1118.6 1345.05 1121.16ZM1391.47 1105.16C1385.07 1105.16 1381.87 1108.36 1381.87 1112.84C1381.87 1112.84 1385.71 1108.36 1392.11 1108.36C1400.43 1108.36 1406.83 1114.76 1406.83 1124.04C1406.83 1133.96 1398.83 1141.96 1387.95 1141.96C1377.07 1141.96 1369.07 1133.96 1369.07 1119.88V1117.32C1369.07 1102.28 1377.07 1094.28 1391.47 1094.28C1393.07 1094.28 1394.03 1093.32 1394.03 1091.72H1406.19C1406.19 1101.96 1402.99 1105.16 1391.47 1105.16ZM1391.47 1124.04C1391.47 1120.84 1389.93 1119.24 1387.95 1119.24C1385.96 1119.24 1384.43 1120.84 1384.43 1124.04C1384.43 1127.24 1385.96 1128.84 1387.95 1128.84C1389.93 1128.84 1391.47 1127.24 1391.47 1124.04ZM1428.61 1106.12C1438.53 1106.12 1446.53 1114.12 1446.53 1124.04C1446.53 1124.3 1446.53 1126.98 1446.53 1127.24H1426.05C1426.05 1127.24 1426.69 1130.76 1431.81 1130.76C1435.01 1130.76 1437.57 1128.2 1437.57 1128.2L1443.01 1136.84C1443.01 1136.84 1438.21 1141.96 1429.57 1141.96C1418.69 1141.96 1410.69 1133.96 1410.69 1124.04C1410.69 1114.12 1418.69 1106.12 1428.61 1106.12ZM1425.73 1121.16H1431.49C1431.49 1118.6 1430.21 1117.32 1428.61 1117.32C1427.01 1117.32 1425.73 1118.6 1425.73 1121.16ZM1484.33 1117.96V1107.08H1499.69V1141H1484.33V1130.12H1479.21V1141H1463.85V1107.08H1479.21V1117.96H1484.33ZM1522.74 1106.12C1532.66 1106.12 1540.66 1114.12 1540.66 1124.04C1540.66 1124.3 1540.66 1126.98 1540.66 1127.24H1520.18C1520.18 1127.24 1520.82 1130.76 1525.94 1130.76C1529.14 1130.76 1531.7 1128.2 1531.7 1128.2L1537.14 1136.84C1537.14 1136.84 1532.34 1141.96 1523.7 1141.96C1512.82 1141.96 1504.82 1133.96 1504.82 1124.04C1504.82 1114.12 1512.82 1106.12 1522.74 1106.12ZM1519.86 1121.16H1525.62C1525.62 1118.6 1524.34 1117.32 1522.74 1117.32C1521.14 1117.32 1519.86 1118.6 1519.86 1121.16ZM1572.69 1124.04C1572.69 1126.92 1574.61 1128.84 1577.81 1128.84C1581.01 1128.84 1583.57 1126.28 1583.57 1126.28L1589.97 1136.52C1589.97 1136.52 1584.85 1141.96 1575.57 1141.96C1564.69 1141.96 1556.69 1133.96 1556.69 1124.04C1556.69 1114.12 1564.69 1106.12 1575.57 1106.12C1584.85 1106.12 1589.97 1111.56 1589.97 1111.56L1583.57 1121.8C1583.57 1121.8 1581.01 1119.24 1577.81 1119.24C1574.61 1119.24 1572.69 1121.16 1572.69 1124.04ZM1593.79 1107.08H1629.63V1141H1614.27V1119.88H1609.15V1141H1593.79V1107.08ZM1652.68 1106.12C1662.6 1106.12 1670.6 1114.12 1670.6 1124.04C1670.6 1124.3 1670.6 1126.98 1670.6 1127.24H1650.12C1650.12 1127.24 1650.76 1130.76 1655.88 1130.76C1659.08 1130.76 1661.64 1128.2 1661.64 1128.2L1667.08 1136.84C1667.08 1136.84 1662.28 1141.96 1653.64 1141.96C1642.76 1141.96 1634.76 1133.96 1634.76 1124.04C1634.76 1114.12 1642.76 1106.12 1652.68 1106.12ZM1649.8 1121.16H1655.56C1655.56 1118.6 1654.28 1117.32 1652.68 1117.32C1651.08 1117.32 1649.8 1118.6 1649.8 1121.16ZM1690.46 1107.08V1128.2H1694.3V1107.08H1694.36H1709.66V1128.2H1713.5V1107.08H1728.86V1141H1675.1V1107.08H1690.46ZM1751.29 1141H1735.29V1107.08H1750.65V1121.8L1756.41 1107.08H1772.41V1141H1757.05V1126.28L1751.29 1141ZM1776.23 1107.08H1808.23V1120.52H1799.91V1141H1784.55V1120.52H1776.23V1107.08ZM1830.92 1116.04C1838.92 1116.04 1844.68 1121.8 1844.68 1128.84C1844.68 1135.88 1838.92 1141.64 1827.72 1141.64C1818.12 1141.64 1812.04 1141 1812.04 1141V1107.08H1827.4V1116.36C1827.4 1116.36 1829.32 1116.04 1830.92 1116.04ZM1827.72 1126.28H1826.76V1131.4H1827.72C1829 1131.4 1829.96 1130.44 1829.96 1128.84C1829.96 1127.24 1829 1126.28 1827.72 1126.28Z" fill="black"/>
</svg>
