<svg width="1920" height="1875" viewBox="0 0 1920 1875" fill="none" xmlns="http://www.w3.org/2000/svg">
<rect x="8" y="344" width="1905" height="1523" rx="13" fill="#6836F0" stroke="white" stroke-width="16"/>
<path d="M908.462 1378H1913V1545H908.462C901.282 1545 895.462 1539.18 895.462 1532V1391C895.462 1383.82 901.282 1378 908.462 1378Z" fill="#BAF137" stroke="white" stroke-width="16"/>
<path d="M1533.8 336L1459.76 336L1459.76 0L1533.8 0L1533.8 336Z" fill="#BAF137"/>
<path d="M1533.8 627.5L1338.2 627.5V722.5L1797.44 722.5V1016.5L1056.55 1014V491.5L157.082 491.5L157.082 867.5L546.785 867.5V687.5H885.461L885.461 1249H654.341V1342.5L157.082 1342.5L157.082 1603L654.341 1603V1859L582.303 1859V1672.5L85.0442 1672.5L85.0442 1269.5L582.303 1269.5V1177H812.923L812.923 761.5H617.321V940.5L85.0442 940.5L85.0442 420L1130.09 425V941.5L1725.9 941.5V798L1264.16 798V556.5H1459.76L1459.76 352L1533.8 352L1533.8 627.5Z" fill="#BAF137"/>
<path d="M1009.41 1443.08H1045.25V1477H1029.89V1455.88H1024.77V1477H1009.41V1443.08ZM1050.38 1460.04C1050.38 1450.12 1058.38 1442.12 1069.9 1442.12C1081.42 1442.12 1089.42 1450.12 1089.42 1460.04C1089.42 1469.96 1081.42 1477.96 1069.9 1477.96C1058.38 1477.96 1050.38 1469.96 1050.38 1460.04ZM1074.06 1460.04C1074.06 1457.16 1072.14 1455.24 1069.9 1455.24C1067.66 1455.24 1065.74 1457.16 1065.74 1460.04C1065.74 1462.92 1067.66 1464.84 1069.9 1464.84C1072.14 1464.84 1074.06 1462.92 1074.06 1460.04ZM1115.99 1459.4V1459.72C1115.99 1459.72 1122.39 1461.32 1122.39 1468.04C1122.39 1472.84 1117.27 1477.96 1107.99 1477.96C1096.79 1477.96 1091.35 1471.88 1091.35 1471.88L1096.15 1464.2C1096.15 1464.2 1099.35 1467.4 1103.19 1467.4C1104.79 1467.4 1105.75 1466.44 1105.75 1465.48C1105.75 1464.52 1104.79 1463.56 1103.19 1463.56H1099.35V1456.52H1103.83C1105.43 1456.52 1106.39 1455.56 1106.39 1454.6C1106.39 1453.64 1105.43 1452.68 1103.83 1452.68C1099.99 1452.68 1097.43 1455.24 1097.43 1455.24L1092.63 1447.56C1092.63 1447.56 1098.07 1442.12 1107.35 1442.12C1116.63 1442.12 1121.75 1447.24 1121.75 1452.04C1121.75 1457.8 1115.99 1459.4 1115.99 1459.4ZM1153.41 1459.4V1459.72C1153.41 1459.72 1160.13 1461.32 1160.13 1467.4C1160.13 1472.52 1155.01 1477.64 1142.53 1477.64C1132.93 1477.64 1126.85 1477 1126.85 1477V1443.08C1126.85 1443.08 1132.93 1442.44 1142.21 1442.44C1153.09 1442.44 1158.21 1447.56 1158.21 1452.68C1158.21 1457.8 1153.41 1459.4 1153.41 1459.4ZM1141.57 1468.04H1142.53C1143.81 1468.04 1144.77 1467.08 1144.77 1466.12C1144.77 1465.16 1143.81 1464.2 1142.53 1464.2H1141.57V1468.04ZM1141.57 1452.04V1455.88C1143.17 1455.88 1144.13 1454.92 1144.13 1453.96C1144.13 1453 1143.17 1452.04 1141.57 1452.04ZM1163.32 1460.04C1163.32 1450.12 1171.32 1442.12 1182.84 1442.12C1194.36 1442.12 1202.36 1450.12 1202.36 1460.04C1202.36 1469.96 1194.36 1477.96 1182.84 1477.96C1171.32 1477.96 1163.32 1469.96 1163.32 1460.04ZM1187 1460.04C1187 1457.16 1185.08 1455.24 1182.84 1455.24C1180.6 1455.24 1178.68 1457.16 1178.68 1460.04C1178.68 1462.92 1180.6 1464.84 1182.84 1464.84C1185.08 1464.84 1187 1462.92 1187 1460.04ZM1210.05 1443.08H1241.41V1477H1226.05V1455.88H1223.49C1223.49 1472.2 1217.73 1477.96 1209.41 1477.96C1206.85 1477.96 1203.65 1477 1203.65 1477V1466.12H1204.93C1208.13 1466.12 1210.05 1464.2 1210.05 1443.08ZM1266.67 1452.04C1274.67 1452.04 1280.43 1457.8 1280.43 1464.84C1280.43 1471.88 1274.67 1477.64 1263.47 1477.64C1253.87 1477.64 1247.79 1477 1247.79 1477V1443.08H1263.15V1452.36C1263.15 1452.36 1265.07 1452.04 1266.67 1452.04ZM1263.47 1462.28H1262.51V1467.4H1263.47C1264.75 1467.4 1265.71 1466.44 1265.71 1464.84C1265.71 1463.24 1264.75 1462.28 1263.47 1462.28ZM1312.44 1460.04C1312.44 1462.92 1314.36 1464.84 1317.56 1464.84C1320.76 1464.84 1323.32 1462.28 1323.32 1462.28L1329.72 1472.52C1329.72 1472.52 1324.6 1477.96 1315.32 1477.96C1304.44 1477.96 1296.44 1469.96 1296.44 1460.04C1296.44 1450.12 1304.44 1442.12 1315.32 1442.12C1324.6 1442.12 1329.72 1447.56 1329.72 1447.56L1323.32 1457.8C1323.32 1457.8 1320.76 1455.24 1317.56 1455.24C1314.36 1455.24 1312.44 1457.16 1312.44 1460.04ZM1348.93 1442.12C1358.85 1442.12 1366.85 1450.12 1366.85 1460.04C1366.85 1460.3 1366.85 1462.98 1366.85 1463.24H1346.37C1346.37 1463.24 1347.01 1466.76 1352.13 1466.76C1355.33 1466.76 1357.89 1464.2 1357.89 1464.2L1363.33 1472.84C1363.33 1472.84 1358.53 1477.96 1349.89 1477.96C1339.01 1477.96 1331.01 1469.96 1331.01 1460.04C1331.01 1450.12 1339.01 1442.12 1348.93 1442.12ZM1346.05 1457.16H1351.81C1351.81 1454.6 1350.53 1453.32 1348.93 1453.32C1347.33 1453.32 1346.05 1454.6 1346.05 1457.16ZM1392.47 1441.16C1386.07 1441.16 1382.87 1444.36 1382.87 1448.84C1382.87 1448.84 1386.71 1444.36 1393.11 1444.36C1401.43 1444.36 1407.83 1450.76 1407.83 1460.04C1407.83 1469.96 1399.83 1477.96 1388.95 1477.96C1378.07 1477.96 1370.07 1469.96 1370.07 1455.88V1453.32C1370.07 1438.28 1378.07 1430.28 1392.47 1430.28C1394.07 1430.28 1395.03 1429.32 1395.03 1427.72H1407.19C1407.19 1437.96 1403.99 1441.16 1392.47 1441.16ZM1392.47 1460.04C1392.47 1456.84 1390.93 1455.24 1388.95 1455.24C1386.96 1455.24 1385.43 1456.84 1385.43 1460.04C1385.43 1463.24 1386.96 1464.84 1388.95 1464.84C1390.93 1464.84 1392.47 1463.24 1392.47 1460.04ZM1429.61 1442.12C1439.53 1442.12 1447.53 1450.12 1447.53 1460.04C1447.53 1460.3 1447.53 1462.98 1447.53 1463.24H1427.05C1427.05 1463.24 1427.69 1466.76 1432.81 1466.76C1436.01 1466.76 1438.57 1464.2 1438.57 1464.2L1444.01 1472.84C1444.01 1472.84 1439.21 1477.96 1430.57 1477.96C1419.69 1477.96 1411.69 1469.96 1411.69 1460.04C1411.69 1450.12 1419.69 1442.12 1429.61 1442.12ZM1426.73 1457.16H1432.49C1432.49 1454.6 1431.21 1453.32 1429.61 1453.32C1428.01 1453.32 1426.73 1454.6 1426.73 1457.16ZM1485.33 1453.96V1443.08H1500.69V1477H1485.33V1466.12H1480.21V1477H1464.85V1443.08H1480.21V1453.96H1485.33ZM1523.74 1442.12C1533.66 1442.12 1541.66 1450.12 1541.66 1460.04C1541.66 1460.3 1541.66 1462.98 1541.66 1463.24H1521.18C1521.18 1463.24 1521.82 1466.76 1526.94 1466.76C1530.14 1466.76 1532.7 1464.2 1532.7 1464.2L1538.14 1472.84C1538.14 1472.84 1533.34 1477.96 1524.7 1477.96C1513.82 1477.96 1505.82 1469.96 1505.82 1460.04C1505.82 1450.12 1513.82 1442.12 1523.74 1442.12ZM1520.86 1457.16H1526.62C1526.62 1454.6 1525.34 1453.32 1523.74 1453.32C1522.14 1453.32 1520.86 1454.6 1520.86 1457.16ZM1573.69 1460.04C1573.69 1462.92 1575.61 1464.84 1578.81 1464.84C1582.01 1464.84 1584.57 1462.28 1584.57 1462.28L1590.97 1472.52C1590.97 1472.52 1585.85 1477.96 1576.57 1477.96C1565.69 1477.96 1557.69 1469.96 1557.69 1460.04C1557.69 1450.12 1565.69 1442.12 1576.57 1442.12C1585.85 1442.12 1590.97 1447.56 1590.97 1447.56L1584.57 1457.8C1584.57 1457.8 1582.01 1455.24 1578.81 1455.24C1575.61 1455.24 1573.69 1457.16 1573.69 1460.04ZM1594.79 1443.08H1630.63V1477H1615.27V1455.88H1610.15V1477H1594.79V1443.08ZM1653.68 1442.12C1663.6 1442.12 1671.6 1450.12 1671.6 1460.04C1671.6 1460.3 1671.6 1462.98 1671.6 1463.24H1651.12C1651.12 1463.24 1651.76 1466.76 1656.88 1466.76C1660.08 1466.76 1662.64 1464.2 1662.64 1464.2L1668.08 1472.84C1668.08 1472.84 1663.28 1477.96 1654.64 1477.96C1643.76 1477.96 1635.76 1469.96 1635.76 1460.04C1635.76 1450.12 1643.76 1442.12 1653.68 1442.12ZM1650.8 1457.16H1656.56C1656.56 1454.6 1655.28 1453.32 1653.68 1453.32C1652.08 1453.32 1650.8 1454.6 1650.8 1457.16ZM1691.46 1443.08V1464.2H1695.3V1443.08H1695.36H1710.66V1464.2H1714.5V1443.08H1729.86V1477H1676.1V1443.08H1691.46ZM1752.29 1477H1736.29V1443.08H1751.65V1457.8L1757.41 1443.08H1773.41V1477H1758.05V1462.28L1752.29 1477ZM1777.23 1443.08H1809.23V1456.52H1800.91V1477H1785.55V1456.52H1777.23V1443.08ZM1831.92 1452.04C1839.92 1452.04 1845.68 1457.8 1845.68 1464.84C1845.68 1471.88 1839.92 1477.64 1828.72 1477.64C1819.12 1477.64 1813.04 1477 1813.04 1477V1443.08H1828.4V1452.36C1828.4 1452.36 1830.32 1452.04 1831.92 1452.04ZM1828.72 1462.28H1827.76V1467.4H1828.72C1830 1467.4 1830.96 1466.44 1830.96 1464.84C1830.96 1463.24 1830 1462.28 1828.72 1462.28Z" fill="black"/>
</svg>
